STARTFONT 2.1
COMMENT Created by fdbbdf
FONT values25
SIZE 25 78 78
FONTBOUNDINGBOX 51 50 -26 -26
STARTPROPERTIES 4
Ownership "  "
FONT_ASCENT 24
FONT_DESCENT 26
DEFAULT_CHAR 65
ENDPROPERTIES
CHARS 47
STARTCHAR A
ENCODING -1 65
SWIDTH 0 0
DWIDTH 13 0
BBX 21 13 -9 -8
BITMAP
03fff800
05555800
0aaab800
15557800
2aaae800
5555d800
ffffb800
80037000
9552e000
8003c000
aaab8000
80030000
fffe0000
ENDCHAR
STARTCHAR B
ENCODING -1 66
SWIDTH 0 0
DWIDTH 7 0
BBX 21 14 -15 -9
BITMAP
007fe000
00fff000
01fff800
033ff800
067ff800
0cfff800
1ffff000
3fffe000
600fc000
d5578000
d5570000
caa60000
600c0000
3ff80000
ENDCHAR
STARTCHAR C
ENCODING -1 67
SWIDTH 0 0
DWIDTH 13 0
BBX 21 13 -9 -8
BITMAP
03fff800
05555800
0aaab800
15557800
2aaae800
5555d800
ffffb800
80037000
9552e000
8003c000
aaab8000
80030000
fffe0000
ENDCHAR
STARTCHAR D
ENCODING -1 68
SWIDTH 0 0
DWIDTH 14 0
BBX 13 13 1 -13
BITMAP
7ff0
c018
a028
9fc8
9048
9048
9048
9048
9048
9fc8
a028
c018
7ff0
ENDCHAR
STARTCHAR E
ENCODING -1 69
SWIDTH 0 0
DWIDTH 0 0
BBX 8 7 -3 -1
BITMAP
1800
2400
3c00
3c00
1800
1800
ff00
ENDCHAR
STARTCHAR F
ENCODING -1 70
SWIDTH 0 0
DWIDTH 0 0
BBX 8 7 -3 -7
BITMAP
ff00
1800
1800
3c00
2400
3c00
1800
ENDCHAR
STARTCHAR G
ENCODING -1 71
SWIDTH 0 0
DWIDTH 0 0
BBX 7 8 0 -5
BITMAP
8000
8000
9c00
f600
f600
9c00
8000
8000
ENDCHAR
STARTCHAR H
ENCODING -1 72
SWIDTH 0 0
DWIDTH 0 0
BBX 7 8 -6 -5
BITMAP
0200
0200
7200
de00
de00
7200
0200
0200
ENDCHAR
STARTCHAR I
ENCODING -1 73
SWIDTH 0 0
DWIDTH 0 0
BBX 5 6 -2 -3
BITMAP
2000
7000
f800
2000
2000
2000
ENDCHAR
STARTCHAR J
ENCODING -1 74
SWIDTH 0 0
DWIDTH 0 0
BBX 5 6 -2 -3
BITMAP
2000
2000
2000
f800
7000
2000
ENDCHAR
STARTCHAR K
ENCODING -1 75
SWIDTH 0 0
DWIDTH 0 0
BBX 6 5 -2 -3
BITMAP
1000
1800
fc00
1800
1000
ENDCHAR
STARTCHAR L
ENCODING -1 76
SWIDTH 0 0
DWIDTH 0 0
BBX 6 5 -2 -3
BITMAP
2000
6000
fc00
6000
2000
ENDCHAR
STARTCHAR M
ENCODING -1 77
SWIDTH 0 0
DWIDTH 0 0
BBX 13 19 -6 -8
BITMAP
0700
0d80
0980
f9f8
cd98
a728
d758
a728
d758
a7a8
cbd8
aba8
cfd8
afa8
d758
aaa8
d558
aaa8
fff8
ENDCHAR
STARTCHAR N
ENCODING -1 78
SWIDTH 0 0
DWIDTH 0 0
BBX 13 19 -6 -11
BITMAP
fff8
d558
aaa8
d558
aaa8
d758
afa8
cbd8
aba8
cfd8
a728
d758
a728
d758
ada8
f9f8
0980
0d80
0700
ENDCHAR
STARTCHAR O
ENCODING -1 79
SWIDTH 0 0
DWIDTH 11 0
BBX 29 43 -13 -24
BITMAP
fffffff8
c0000018
bfffffe8
9aaaaac8
95555548
9a8002c8
951ffd48
9abffac8
95201d48
9a7ffac8
94c03d48
9afffac8
94807d48
99fffac8
95fffd48
9900fac8
93fffd48
9a00fac8
93fffd48
9a00fac8
93fffd48
9bfffac8
9200fd48
9bfffac8
9200fd48
9bfffac8
9100fd48
99fffac8
95fffd48
99807ac8
94fffd48
9ac03ac8
947ffd48
9a201ac8
953ffd48
9a9ffac8
95400548
9aaaaac8
9fffffc8
a0000028
e0000038
c0000018
fffffff8
ENDCHAR
STARTCHAR P
ENCODING -1 80
SWIDTH 0 0
DWIDTH 11 0
BBX 29 43 -13 -24
BITMAP
fffffff8
c0000018
bfffffe8
9aaaaac8
95555548
9a8002c8
951ffd48
9ab01ac8
953ffd48
9a603ac8
947ffd48
9ac07ac8
94fffd48
99fffac8
9100fd48
9bfffac8
9200fd48
9bfffac8
9200fd48
9bfffac8
93fffd48
9a00fac8
93fffd48
9a00fac8
93fffd48
9a00fac8
93fffd48
99fffac8
95007d48
99fffac8
94803d48
9afffac8
94601d48
9a3ffac8
953ffd48
9a9ffac8
95400548
9aaaaac8
9fffffc8
a0000028
e0000038
c0000018
fffffff8
ENDCHAR
STARTCHAR Q
ENCODING -1 81
SWIDTH 0 0
DWIDTH 11 0
BBX 29 43 -13 -24
BITMAP
fffffff8
c0000018
bfffffe8
9aaaaac8
95555548
9a8002c8
951ffd48
9abffac8
95201d48
9a7ffac8
94403d48
9afffac8
94fffd48
99807ac8
91fffd48
9b00fac8
93fffd48
9a00fac8
93fffd48
9bfffac8
9200fd48
9bfffac8
9200fd48
9bfffac8
9200fd48
9bfffac8
93fffd48
9900fac8
95fffd48
99807ac8
94fffd48
9ac03ac8
947ffd48
9a3ffac8
95301d48
9a9ffac8
95400548
9aaaaac8
9fffffc8
a0000028
e0000038
c0000018
fffffff8
ENDCHAR
STARTCHAR R
ENCODING -1 82
SWIDTH 0 0
DWIDTH 11 0
BBX 29 43 -13 -24
BITMAP
fffffff8
c0000018
bfffffe8
9aaaaac8
95555548
9a8002c8
951ffd48
9ab01ac8
953ffd48
9a403ac8
947ffd48
9afffac8
94807d48
99fffac8
91007d48
9bfffac8
9200fd48
9bfffac8
93fffd48
9a00fac8
93fffd48
9a00fac8
93fffd48
9a00fac8
93fffd48
9bfffac8
9300fd48
99fffac8
95007d48
99fffac8
94807d48
9afffac8
947ffd48
9a203ac8
953ffd48
9a9ffac8
95400548
9aaaaac8
9fffffc8
a0000028
e0000038
c0000018
fffffff8
ENDCHAR
STARTCHAR S
ENCODING -1 83
SWIDTH 0 0
DWIDTH 11 0
BBX 29 43 -13 -24
BITMAP
fffffff8
c0000018
bfffffe8
9aaaaac8
95555548
9a8002c8
951ffd48
9abffac8
95201d48
9a7ffac8
947ffd48
9ac03ac8
94fffd48
99807ac8
91fffd48
9b00fac8
93fffd48
9bfffac8
9200fd48
9bfffac8
9200fd48
9bfffac8
9200fd48
9bfffac8
93fffd48
9a00fac8
93fffd48
9900fac8
95fffd48
99807ac8
94fffd48
9afffac8
94603d48
9a3ffac8
95301d48
9a9ffac8
95400548
9aaaaac8
9fffffc8
a0000028
e0000038
c0000018
fffffff8
ENDCHAR
STARTCHAR T
ENCODING -1 84
SWIDTH 0 0
DWIDTH 11 0
BBX 29 43 -13 -24
BITMAP
fffffff8
c0000018
bfffffe8
9aaaaac8
95555548
9a8002c8
951ffd48
9ab01ac8
953ffd48
9a7ffac8
94403d48
9afffac8
94807d48
99fffac8
9100fd48
9bfffac8
93fffd48
9a00fac8
93fffd48
9a00fac8
93fffd48
9a00fac8
93fffd48
9bfffac8
9200fd48
9bfffac8
9200fd48
99fffac8
9500fd48
99fffac8
94fffd48
9ac07ac8
947ffd48
9a201ac8
953ffd48
9a9ffac8
95400548
9aaaaac8
9fffffc8
a0000028
e0000038
c0000018
fffffff8
ENDCHAR
STARTCHAR U
ENCODING -1 85
SWIDTH 0 0
DWIDTH 11 0
BBX 29 43 -13 -24
BITMAP
fffffff8
c0000018
bfffffe8
9aaaaac8
95555548
9a8002c8
951ffd48
9abffac8
953ffd48
9a601ac8
947ffd48
9ac07ac8
94fffd48
9900fac8
91fffd48
9bfffac8
9200fd48
9bfffac8
9200fd48
9bfffac8
9200fd48
9bfffac8
93fffd48
9a00fac8
93fffd48
9a00fac8
93fffd48
9900fac8
95fffd48
99fffac8
94807d48
9afffac8
94603d48
9a3ffac8
95301d48
9a9ffac8
95400548
9aaaaac8
9fffffc8
a0000028
e0000038
c0000018
fffffff8
ENDCHAR
STARTCHAR a
ENCODING -1 97
SWIDTH 0 0
DWIDTH 20 0
BBX 22 44 -10 -20
BITMAP
00fc0000
01fc0000
03be0000
033e0000
03360000
03360000
033e0000
03be0000
01bc0000
fffffc00
c0f80c00
bffff400
95fd6400
9afaa400
94fd6400
9afaa400
94fd6400
98daa400
90dd6400
989aa400
909d6400
989aa400
90dd6400
98daa400
90fd6400
98faa400
94fd6400
9872a400
94056400
9a0aa400
95556400
9aaaa400
95556400
9aaaa400
95556400
9aaaa400
95556400
9aaaa400
9fffe400
a0001400
a0001400
c0000c00
c0000c00
fffffc00
ENDCHAR
STARTCHAR b
ENCODING -1 98
SWIDTH 0 0
DWIDTH 20 0
BBX 16 28 -7 -15
BITMAP
ffff
aaab
d555
aaab
d555
aaab
d7d5
aceb
dcd5
bcfb
dcf5
befb
d6f5
b7fb
dbf5
bbfb
d8f5
bffb
cfe5
afeb
d7d5
aaab
d555
aaab
d555
aaab
d555
ffff
ENDCHAR
STARTCHAR c
ENCODING -1 99
SWIDTH 0 0
DWIDTH 21 0
BBX 22 41 -10 -26
BITMAP
fffffc00
c0000c00
bffff400
9aaaa400
95556400
9aaaa400
95556400
9aaaa400
95556400
9aaaa400
95556400
9a0aa400
94056400
9872a400
94fd6400
98faa400
90fd6400
98daa400
90dd6400
989aa400
909d6400
989aa400
90dd6400
98daa400
94fd6400
9afaa400
94fd6400
9afaa400
95fd6400
9fffe400
a0f81400
e0f81c00
c1bc0c00
ffbffc00
033e0000
03360000
03360000
033e0000
03be0000
01fc0000
00fc0000
ENDCHAR
STARTCHAR d
ENCODING -1 100
SWIDTH 0 0
DWIDTH 25 0
BBX 39 16 -14 -9
BITMAP
fffffff00000
d55555500000
aaa802b00000
d5400151f800
aa800033fc00
d50fffff0e00
aa9f8ffc0600
d51e03fffe00
aa9ffffffe00
d55ffffffe00
aaaaaab3fe00
d5555551f800
aaaaaab00000
d55555500000
aaaaaab00000
fffffff00000
ENDCHAR
STARTCHAR e
ENCODING -1 101
SWIDTH 0 0
DWIDTH 26 0
BBX 28 16 -13 -9
BITMAP
fffffff0
d5555550
aaaaaab0
d53ff550
aafcfab0
d5e3fd50
abef86b0
d5ee0550
abfffeb0
d5fffd50
aaffeab0
d53ff550
aaaaaab0
d5555550
aaaaaab0
fffffff0
ENDCHAR
STARTCHAR f
ENCODING -1 102
SWIDTH 0 0
DWIDTH 27 0
BBX 39 16 -26 -9
BITMAP
001ffffffe00
001555555600
001a802aaa00
3f1500055600
7f980002aa00
e1ffffe15600
c07fe3faaa00
ffff80f55600
fffffffaaa00
fffffff55600
ff9aaaaaaa00
3f1555555600
001aaaaaaa00
001555555600
001aaaaaaa00
001ffffffe00
ENDCHAR
STARTCHAR g
ENCODING -1 103
SWIDTH 0 0
DWIDTH 19 0
BBX 23 36 -11 -17
BITMAP
00100000
00380000
00380000
00380000
007c0000
007c0000
00fe0000
00fe0000
00fe0000
01ff0000
03df8000
079fc000
0f9fe000
1b9fb000
339f9800
739f8c00
639f8c00
c39f8600
c39f8600
839f8200
839f8200
839f8200
839f8200
839f8200
c39f8600
47bfc400
6bffac00
77ffdc00
3bffb800
1ffff000
0fffe000
07ffc000
03ff8000
00fe0000
00fe0000
00380000
ENDCHAR
STARTCHAR h
ENCODING -1 104
SWIDTH 0 0
DWIDTH 19 0
BBX 27 27 -11 -13
BITMAP
000000e0
000007e0
00003fe0
00007fc0
01ffffc0
0701ffc0
0c03ff80
1807ff80
300fff80
201fff00
603ffe00
c07ffe00
c0fffa00
c1fff200
a39fe200
d73fc200
ae7f8200
dcff0200
fdfe0200
fffc0600
fff80400
7ff00c00
7fe01800
7fd03000
3fa8e000
1fd78000
03fe0000
ENDCHAR
STARTCHAR i
ENCODING -1 105
SWIDTH 0 0
DWIDTH 22 0
BBX 36 23 -16 -12
BITMAP
001fe0000000
00f078000000
01c01c000000
03800e000000
074003000000
0ea001800000
1fffffc00000
1fffffe00000
7ffffffc0000
7e00007f0000
fc00003fe000
fffffffff000
ffffffffe000
7fffffff0000
7ffffffc0000
1fffffe00000
1fffffc00000
0ea001800000
074003000000
038006000000
01c01c000000
00f078000000
001fe0000000
ENDCHAR
STARTCHAR j
ENCODING -1 106
SWIDTH 0 0
DWIDTH 22 0
BBX 27 27 -12 -16
BITMAP
03ff0000
1fd78000
3fa8e000
7fd03000
7fe01800
7ff00c00
ff380400
ff9c0600
ffce0200
dfe70200
aff78200
d7ffc200
a3ffe200
c1fff200
c0fffa00
407ffe00
603ffe00
201fff00
300fff80
1807ff80
0c03ff80
0701ffc0
01ffffc0
00007fc0
00003fe0
000007e0
000000e0
ENDCHAR
STARTCHAR k
ENCODING -1 107
SWIDTH 0 0
DWIDTH 16 0
BBX 23 36 -11 -20
BITMAP
00380000
00fe0000
00fe0000
03ff8000
07ffc000
0fffe000
1fbff000
3b3fb800
773fdc00
6b3fac00
473fc400
c33f8600
833f8200
833f8200
833f8200
833f8200
833f8200
c33f8600
c33f8600
633f8c00
633f9c00
337f9800
1bffb000
0fffe000
07ffc000
03ff8000
01ff0000
00fe0000
00fe0000
00fe0000
007c0000
007c0000
00380000
00380000
00380000
00100000
ENDCHAR
STARTCHAR l
ENCODING -1 108
SWIDTH 0 0
DWIDTH 16 0
BBX 27 27 -15 -15
BITMAP
000ff800
003d7f00
00e2bf80
01817fc0
0300ffc0
0601ffc0
0403ffe0
0c07ffe0
080ff7e0
081fe760
083fcea0
087f9d60
08ff38a0
09fff060
0bffe060
0fffc060
0fff80c0
1fff0080
3ffe0180
3ffc0300
3ff80600
7ff01c00
7ffff000
7fc00000
ff800000
fc000000
e0000000
ENDCHAR
STARTCHAR m
ENCODING -1 109
SWIDTH 0 0
DWIDTH 18 0
BBX 36 23 -19 -12
BITMAP
00007f800000
0001e0f00000
000380380000
0006001c0000
000c002e0000
001800570000
003fffff8000
007fffff8000
03e00007e000
0fc00003e000
7ffffffff000
fffffffff000
7ffffffff000
0fffffffe000
03ffffffe000
007fffff8000
003fffff8000
001800570000
000c002e0000
0007001c0000
000380380000
0001e0f00000
00007f800000
ENDCHAR
STARTCHAR n
ENCODING -1 110
SWIDTH 0 0
DWIDTH 18 0
BBX 27 27 -14 -12
BITMAP
e0000000
fc000000
ff800000
7fc00000
7ffff000
7ff01c00
3ff80600
3ffc0300
3ffe0180
1fff0080
0fff80c0
0fffc040
0bffe060
09fff060
08fff8a0
087ffd60
083dfea0
081cff60
080e7fe0
0c073fe0
04039fe0
0601ffc0
0300ffc0
01817fc0
00e2bf80
003d7f00
001ff800
ENDCHAR
STARTCHAR o
ENCODING -1 111
SWIDTH 0 0
DWIDTH 15 0
BBX 22 38 -7 -20
BITMAP
ffe00000
fff00000
fff80000
a0040000
9ffe0000
a8010000
c4008000
87ff8000
83ffc000
81002000
87ffe000
98401000
e0200800
803ff800
803ff800
ffe00800
801ffc00
80100400
80100400
801ffc00
fffff800
80200800
803ff800
80400800
e0401000
98fff000
87fff000
81002000
83ffc000
c4004000
a4008000
9fff0000
8fff0000
90020000
bffc0000
c0080000
80100000
ffe00000
ENDCHAR
STARTCHAR p
ENCODING -1 112
SWIDTH 0 0
DWIDTH 16 0
BBX 22 38 -7 -20
BITMAP
ffe00000
80100000
fff80000
bffc0000
90020000
9fff0000
a4008000
c4008000
83ffc000
81ffe000
81802000
867ff000
98200800
e0200800
803ff800
801ff800
fff00400
801ffc00
80100400
80100400
801ff800
fffff800
80200800
807ff800
80401000
e0801000
99fff000
87ffe000
82004000
87ffc000
c4008000
a8010000
9fff0000
9ffe0000
a0040000
fff80000
80100000
ffe00000
ENDCHAR
STARTCHAR q
ENCODING -1 113
SWIDTH 0 0
DWIDTH 17 0
BBX 22 38 -7 -20
BITMAP
ffe00000
80100000
c0080000
bffc0000
9ffe0000
88010000
97ff8000
a4008000
c2004000
83ffe000
80ffe000
83c01000
8c3ff800
f0200800
80200800
803ff800
801ffc00
fff00400
801ffc00
80100400
80200800
f03ff800
8ffff800
80400800
807ff000
80801000
e1001000
99ffe000
87ffc000
84004000
87ff8000
c8010000
a8010000
9ffe0000
bffc0000
c0080000
fff00000
ffe00000
ENDCHAR
STARTCHAR r
ENCODING -1 114
SWIDTH 0 0
DWIDTH 16 0
BBX 22 38 -7 -20
BITMAP
ffe00000
fff00000
c0080000
a0040000
bffe0000
8fff0000
84008000
8fff8000
92004000
e1002000
81ffe000
80fff000
87200800
f83ff800
80200800
80200800
801ffc00
fffffc00
80100400
801ffc00
80200800
f0200800
8e3ff800
81fff800
80401000
80fff000
c1001000
a1002000
93ffc000
8fffc000
84008000
8fff0000
c8010000
b0020000
bffc0000
fff80000
80100000
ffe00000
ENDCHAR
STARTCHAR s
ENCODING -1 115
SWIDTH 0 0
DWIDTH 16 0
BBX 22 38 -7 -20
BITMAP
ffe00000
80100000
fff80000
a0040000
d0020000
8fff0000
87ff8000
84008000
87ffc000
99002000
e0802000
807ff000
803ff800
8fe00800
f03ff800
80200800
80100400
801ffc00
fffffc00
80100400
803ff800
80200800
e0200800
987ff800
87fff000
80801000
81fff000
c1002000
a2004000
97ffc000
8fff8000
88010000
8fff0000
90020000
a0040000
fff80000
fff00000
ffe00000
ENDCHAR
STARTCHAR t
ENCODING -1 116
SWIDTH 0 0
DWIDTH 16 0
BBX 22 38 -7 -20
BITMAP
ffe00000
fff00000
c0080000
bffc0000
b0020000
c8010000
87ff8000
87ff8000
82004000
87ffe000
98801000
e0401000
803ff800
803ff800
ffe00800
801ff800
80100400
80100400
801ffc00
fffffc00
80200800
803ff800
80200800
e0400800
987ff000
86fff000
81001000
81ffe000
c2004000
a4004000
97ff8000
8fff0000
88010000
9ffe0000
a0040000
c0080000
fff00000
ffe00000
ENDCHAR
STARTCHAR u
ENCODING -1 117
SWIDTH 0 0
DWIDTH 15 0
BBX 22 38 -14 -19
BITMAP
001ffc00
00200400
00400c00
00fff400
01002400
03ffc400
03ffe400
04009400
08008c00
0fff0400
10020400
3fff8400
3ffc6400
20081c00
40080400
7ff00400
40100400
7ffffc00
ffe00400
80200400
80200400
ffe00400
401ffc00
7ff00400
7ff00400
40101c00
20086400
1fff8400
10020400
0fff0400
07ff8400
04008c00
02005400
01ffe400
00801400
007ffc00
003ffc00
001ffc00
ENDCHAR
STARTCHAR v
ENCODING -1 118
SWIDTH 0 0
DWIDTH 16 0
BBX 22 38 -14 -19
BITMAP
001ffc00
00200400
007ffc00
00801400
01ffe400
03ffe400
02005400
04008c00
0fff8400
08010400
1fff8400
3ffe6400
20041c00
20080400
7ff80400
40100400
7ffffc00
7fe00400
80200400
80200400
ffe00400
803ffc00
7fe00400
7ff00400
40101c00
40106400
3ff98400
10060400
1ffe0400
0fff0400
04008c00
04009400
03ffe400
01002400
00fff400
007ffc00
00200400
001ffc00
ENDCHAR
STARTCHAR w
ENCODING -1 119
SWIDTH 0 0
DWIDTH 17 0
BBX 22 38 -14 -19
BITMAP
001ffc00
003ffc00
00400c00
00fff400
01ffe400
02005400
02004c00
07ff8400
08008400
0fff8400
1ffe6400
20021c00
20040400
3ff80400
40080400
7fffc400
7ff03c00
40100400
80200400
ffe00400
803ffc00
ffe00400
7ff00400
40100400
40103c00
7ff0c400
200f0400
1ffc0400
1fff0400
08010c00
04009400
07ffa400
02004400
01ffe400
00fff400
00400c00
00200400
001ffc00
ENDCHAR
STARTCHAR x
ENCODING -1 120
SWIDTH 0 0
DWIDTH 16 0
BBX 22 38 -14 -19
BITMAP
001ffc00
00200400
007ffc00
00fff400
01003400
02004c00
03ffc400
04008400
0fffc400
0fff2400
10021400
20020c00
3ffc0400
20080400
7ffe0400
7ff1c400
40103c00
40100400
ffe00400
80200400
fffffc00
ffe00400
40100400
40100400
7ff07c00
40138400
3ffc0400
1ffe0400
10021c00
08012400
07ffc400
04008400
03ffc400
01fff400
00801400
00400c00
003ffc00
001ffc00
ENDCHAR
STARTCHAR y
ENCODING -1 121
SWIDTH 0 0
DWIDTH 16 0
BBX 22 38 -14 -19
BITMAP
001ffc00
003ffc00
007ffc00
00801400
01002400
03ffc400
02004400
07ffc400
0fffa400
08011400
10020c00
3ffe0400
20040400
3fff8400
7ff86400
40101c00
40100400
7ff00400
80200400
fffffc00
ffe00400
80200400
40100400
7ff03c00
401fc400
7ff00400
3ff80400
10041c00
10026400
0fff8400
04008400
07ff8400
03ffc400
01002c00
00801400
007ffc00
00200400
001ffc00
ENDCHAR
STARTCHAR z
ENCODING -1 122
SWIDTH 0 0
DWIDTH 16 0
BBX 22 38 -14 -19
BITMAP
001ffc00
003ffc00
00400c00
00801400
01ffe400
02004400
03ffc400
07ffa400
08009400
08010c00
1ffe0400
20020400
3ffd8400
3ff86400
40081c00
40100400
7ff00400
40100400
fffffc00
ffe00400
80200400
80200400
7fe00400
401ffc00
7ff00400
7ff00400
20081c00
20046400
1fff8400
08010400
07ff8400
07ff8400
02004c00
01003400
00fff400
00400c00
003ffc00
001ffc00
ENDCHAR
ENDFONT
